{"asset":{"version":"2.0","generator":"babylon.js glTF exporter for Maya 2018 v20200721.1"},"scene":0,"scenes":[{"nodes":[0,5,8,10,18,21,24,27,28,29,30,31]}],"nodes":[{"children":[1],"translation":[0.0,0.5170087,0.0],"name":"group7"},{"children":[2,3],"translation":[-0.0011726236,-0.02991425,0.00217018276],"rotation":[0.0,0.0899329,0.0,0.995947838],"name":"rot"},{"mesh":0,"translation":[-0.125722989,0.003904625,-0.0151581652],"scale":[1.06751966,1.09481907,1.06751966],"name":"polySurface220"},{"children":[4],"mesh":1,"translation":[-0.3434281,-0.112616695,-0.002569809],"scale":[1.07976568,1.10737824,1.07976568],"name":"polySurface221"},{"mesh":2,"name":"polySurface222"},{"children":[6],"translation":[0.05078381,0.40669173,-0.0212512109],"name":"locator1"},{"children":[7],"rotation":[0.0,-0.07147006,0.0,0.9974427],"name":"locator2"},{"mesh":3,"translation":[-0.06763248,-0.0449267142,0.00105891388],"scale":[0.9,0.9,0.9],"name":"Ten_FIX_expoort:svgMesh3"},{"children":[9],"rotation":[-0.23056595,0.3487368,-0.036671795,0.9076768],"name":"_directionalLight1_"},{"name":"directionalLight1"},{"children":[11],"translation":[0.28592965,0.0188734364,-0.003883144],"rotation":[0.0,-9.636544E-08,0.0,1.0],"scale":[1E-12,1E-12,1E-12],"name":"group2"},{"children":[12],"translation":[0.175816849,0.0803817362,0.0103908191],"rotation":[0.0,0.118661165,0.0,0.9929348],"scale":[1.27114427,1.27114427,1.27114427],"name":"locator3"},{"children":[13,14,15,16,17],"translation":[-0.1377589,-0.0629820153,-0.008141584],"scale":[0.7835364,0.7835364,0.7835364],"name":"Tagline_FFbb_TTb_fix:group1"},{"translation":[0.118762918,0.0617768,0.007660668],"scale":[0.925632358,0.925632358,0.925632358],"name":"Tagline_FFbb_TTb_fix:svgMesh9"},{"mesh":4,"translation":[-0.0009917881,0.008622211,-5.81206841E-05],"scale":[1.46094429,1.46094429,1.46094429],"name":"Tagline_FFbb_TTb_fix:word_cloud:svgMesh18"},{"mesh":5,"translation":[0.310985625,0.09031285,0.0138974963],"scale":[0.413897753,0.413897753,0.413897753],"name":"Tagline_FFbb_TTb_fix:hand_heart_export:svgMesh16"},{"mesh":6,"translation":[-0.000799203932,0.000122978352,0.008889848],"name":"Tagline_FFbb_TTb_fix:Tag_line_export:polySurface46"},{"mesh":7,"translation":[0.198279247,0.07772481,0.01812635],"scale":[0.257021636,0.257021636,0.257021636],"name":"Tagline_FFbb_TTb_fix:batch_export:svgMesh17"},{"children":[19],"translation":[1.41177094,0.02485477,0.170555308],"rotation":[0.0,-0.224270672,0.0,0.9745269],"scale":[0.173962355,0.173962355,0.173962355],"name":"Date_D_re:group1"},{"children":[20],"translation":[0.163458586,0.0516941063,0.00166152755],"rotation":[0.0,0.0868157,0.0,0.9962244],"name":"locator4"},{"mesh":8,"translation":[-0.178965539,-0.0676890463,-0.007891529],"scale":[1.35380852,1.35380852,1.35380852],"name":"Date_model_export_TXT:Date_model_export:svgMesh3"},{"children":[22,23],"name":"svgMesh2"},{"name":"transform1"},{"name":"transform2"},{"children":[25,26],"name":"new_teen_1122__svgMesh2"},{"name":"transform1 (1)"},{"name":"transform2 (1)"},{"translation":[-1.39421022,0.2860409,-0.161665261],"rotation":[0.0,-0.0523359552,0.0,0.9986295],"scale":[3.0,3.0,3.0],"name":"Law_week"},{"mesh":9,"translation":[-0.000706710853,-1.7763568E-17,0.01925193],"rotation":[0.0,0.0541890338,0.0,0.9985307],"scale":[3.0,3.0,3.0],"name":"polySurface223"},{"mesh":10,"translation":[-0.0007034501,4.440892E-18,0.0113871908],"rotation":[0.0,0.05531135,0.0,0.9984692],"scale":[3.0,3.0,3.0],"name":"polySurface224"},{"mesh":11,"translation":[-0.000711052038,0.0,0.011389222],"rotation":[0.0,0.04513372,0.0,0.998980939],"scale":[3.0,3.0,3.0],"name":"polySurface225"},{"camera":0,"translation":[0.0,0.0,0.770756],"name":"camera1"}],"cameras":[{"perspective":{"yfov":0.6605947,"zfar":10000.0,"znear":1.0},"type":"perspective","name":"camera1"}],"meshes":[{"primitives":[{"attributes":{"POSITION":1,"TANGENT":2,"NORMAL":3,"TEXCOORD_0":4},"indices":0,"material":0}],"name":"polySurface220"},{"primitives":[{"attributes":{"POSITION":6,"TANGENT":7,"NORMAL":8,"TEXCOORD_0":9},"indices":5,"material":0}],"name":"polySurface221"},{"primitives":[{"attributes":{"POSITION":11,"TANGENT":12,"NORMAL":13,"TEXCOORD_0":14},"indices":10,"material":0}],"name":"polySurface222"},{"primitives":[{"attributes":{"POSITION":16,"TANGENT":17,"NORMAL":18,"TEXCOORD_0":19},"indices":15,"material":1}],"name":"Ten_FIX_expoort:svgMesh3"},{"primitives":[{"attributes":{"POSITION":21,"TANGENT":22,"NORMAL":23,"TEXCOORD_0":24},"indices":20,"material":2}],"name":"Tagline_FFbb_TTb_fix:word_cloud:svgMesh18"},{"primitives":[{"attributes":{"POSITION":26,"TANGENT":27,"NORMAL":28,"TEXCOORD_0":29},"indices":25,"material":3}],"name":"Tagline_FFbb_TTb_fix:hand_heart_export:svgMesh16"},{"primitives":[{"attributes":{"POSITION":31,"TANGENT":32,"NORMAL":33,"TEXCOORD_0":34},"indices":30,"material":4}],"name":"Tagline_FFbb_TTb_fix:Tag_line_export:polySurface46"},{"primitives":[{"attributes":{"POSITION":36,"TANGENT":37,"NORMAL":38,"TEXCOORD_0":39},"indices":35,"material":5}],"name":"Tagline_FFbb_TTb_fix:batch_export:svgMesh17"},{"primitives":[{"attributes":{"POSITION":41,"TANGENT":42,"NORMAL":43,"TEXCOORD_0":44},"indices":40,"material":6}],"name":"Date_model_export_TXT:Date_model_export:svgMesh3"},{"primitives":[{"attributes":{"POSITION":46,"TANGENT":47,"NORMAL":48,"TEXCOORD_0":49},"indices":45,"material":7}],"name":"polySurface223"},{"primitives":[{"attributes":{"POSITION":51,"TANGENT":52,"NORMAL":53,"TEXCOORD_0":54},"indices":50,"material":7}],"name":"polySurface224"},{"primitives":[{"attributes":{"POSITION":56,"TANGENT":57,"NORMAL":58,"TEXCOORD_0":59},"indices":55,"material":7}],"name":"polySurface225"}],"accessors":[{"bufferView":0,"componentType":5123,"count":9300,"type":"SCALAR","name":"accessorIndices"},{"bufferView":1,"componentType":5126,"count":3256,"max":[0.235738009,0.100999936,0.01],"min":[-0.0009881275,0.003137716,-0.005038654],"type":"VEC3","name":"accessorPositions"},{"bufferView":2,"componentType":5126,"count":3256,"type":"VEC4","name":"accessorTangents"},{"bufferView":1,"byteOffset":39072,"componentType":5126,"count":3256,"type":"VEC3","name":"accessorNormals"},{"bufferView":3,"componentType":5126,"count":3256,"type":"VEC2","name":"accessorUVs"},{"bufferView":0,"byteOffset":18600,"componentType":5123,"count":4620,"type":"SCALAR","name":"accessorIndices"},{"bufferView":1,"byteOffset":78144,"componentType":5126,"count":1680,"max":[0.3342063,0.09991841,0.01001],"min":[0.233201936,-0.0009935803,1.00000007E-05],"type":"VEC3","name":"accessorPositions"},{"bufferView":2,"byteOffset":52096,"componentType":5126,"count":1680,"type":"VEC4","name":"accessorTangents"},{"bufferView":1,"byteOffset":98304,"componentType":5126,"count":1680,"type":"VEC3","name":"accessorNormals"},{"bufferView":3,"byteOffset":26048,"componentType":5126,"count":1680,"type":"VEC2","name":"accessorUVs"},{"bufferView":0,"byteOffset":27840,"componentType":5123,"count":4464,"type":"SCALAR","name":"accessorIndices"},{"bufferView":1,"byteOffset":118464,"componentType":5126,"count":1570,"max":[0.41937536,0.08779267,0.01002],"min":[0.33454603,0.00524542434,2.00000013E-05],"type":"VEC3","name":"accessorPositions"},{"bufferView":2,"byteOffset":78976,"componentType":5126,"count":1570,"type":"VEC4","name":"accessorTangents"},{"bufferView":1,"byteOffset":137304,"componentType":5126,"count":1570,"type":"VEC3","name":"accessorNormals"},{"bufferView":3,"byteOffset":39488,"componentType":5126,"count":1570,"type":"VEC2","name":"accessorUVs"},{"bufferView":0,"byteOffset":36768,"componentType":5123,"count":16116,"type":"SCALAR","name":"accessorIndices"},{"bufferView":1,"byteOffset":156144,"componentType":5126,"count":4686,"max":[0.145873547,0.100498006,0.01001434],"min":[-0.00108477,-0.0004864115,-0.009771483],"type":"VEC3","name":"accessorPositions"},{"bufferView":2,"byteOffset":104096,"componentType":5126,"count":4686,"type":"VEC4","name":"accessorTangents"},{"bufferView":1,"byteOffset":212376,"componentType":5126,"count":4686,"type":"VEC3","name":"accessorNormals"},{"bufferView":3,"byteOffset":52048,"componentType":5126,"count":4686,"type":"VEC2","name":"accessorUVs"},{"bufferView":0,"byteOffset":69000,"componentType":5123,"count":14100,"type":"SCALAR","name":"accessorIndices"},{"bufferView":1,"byteOffset":268608,"componentType":5126,"count":4966,"max":[0.222337142,0.100991189,0.01001],"min":[-0.00100000144,-0.000962989,0.0],"type":"VEC3","name":"accessorPositions"},{"bufferView":2,"byteOffset":179072,"componentType":5126,"count":4966,"type":"VEC4","name":"accessorTangents"},{"bufferView":1,"byteOffset":328200,"componentType":5126,"count":4966,"type":"VEC3","name":"accessorNormals"},{"bufferView":3,"byteOffset":89536,"componentType":5126,"count":4966,"type":"VEC2","name":"accessorUVs"},{"bufferView":0,"byteOffset":97200,"componentType":5123,"count":5568,"type":"SCALAR","name":"accessorIndices"},{"bufferView":1,"byteOffset":387792,"componentType":5126,"count":1976,"max":[0.100327678,0.10099306,0.01],"min":[-0.0009720611,-0.00100271218,-0.0128655955],"type":"VEC3","name":"accessorPositions"},{"bufferView":2,"byteOffset":258528,"componentType":5126,"count":1976,"type":"VEC4","name":"accessorTangents"},{"bufferView":1,"byteOffset":411504,"componentType":5126,"count":1976,"type":"VEC3","name":"accessorNormals"},{"bufferView":3,"byteOffset":129264,"componentType":5126,"count":1976,"type":"VEC2","name":"accessorUVs"},{"bufferView":0,"byteOffset":108336,"componentType":5123,"count":10755,"type":"SCALAR","name":"accessorIndices"},{"bufferView":1,"byteOffset":435216,"componentType":5126,"count":3993,"max":[0.289963245,0.0923457,0.01044],"min":[0.00765075674,0.0148283392,0.00129945064],"type":"VEC3","name":"accessorPositions"},{"bufferView":2,"byteOffset":290144,"componentType":5126,"count":3993,"type":"VEC4","name":"accessorTangents"},{"bufferView":1,"byteOffset":483132,"componentType":5126,"count":3993,"type":"VEC3","name":"accessorNormals"},{"bufferView":3,"byteOffset":145072,"componentType":5126,"count":3993,"type":"VEC2","name":"accessorUVs"},{"bufferView":0,"byteOffset":129848,"componentType":5123,"count":1452,"type":"SCALAR","name":"accessorIndices"},{"bufferView":1,"byteOffset":531048,"componentType":5126,"count":498,"max":[0.0888935849,0.0957011,0.0100000044],"min":[0.0110038752,0.0003885269,0.0],"type":"VEC3","name":"accessorPositions"},{"bufferView":2,"byteOffset":354032,"componentType":5126,"count":498,"type":"VEC4","name":"accessorTangents"},{"bufferView":1,"byteOffset":537024,"componentType":5126,"count":498,"type":"VEC3","name":"accessorNormals"},{"bufferView":3,"byteOffset":177016,"componentType":5126,"count":498,"type":"VEC2","name":"accessorUVs"},{"bufferView":0,"byteOffset":132752,"componentType":5123,"count":20340,"type":"SCALAR","name":"accessorIndices"},{"bufferView":1,"byteOffset":543000,"componentType":5126,"count":4296,"max":[0.265385538,0.100993194,0.015],"min":[-0.0009972894,-0.0009952318,-0.003626617],"type":"VEC3","name":"accessorPositions"},{"bufferView":2,"byteOffset":362000,"componentType":5126,"count":4296,"type":"VEC4","name":"accessorTangents"},{"bufferView":1,"byteOffset":594552,"componentType":5126,"count":4296,"type":"VEC3","name":"accessorNormals"},{"bufferView":3,"byteOffset":181000,"componentType":5126,"count":4296,"type":"VEC2","name":"accessorUVs"},{"bufferView":0,"byteOffset":173432,"componentType":5123,"count":13485,"type":"SCALAR","name":"accessorIndices"},{"bufferView":1,"byteOffset":646104,"componentType":5126,"count":4773,"max":[0.036299143,0.04851856,0.00499500055],"min":[-0.0362893268,0.0229416229,-0.005005],"type":"VEC3","name":"accessorPositions"},{"bufferView":2,"byteOffset":430736,"componentType":5126,"count":4773,"type":"VEC4","name":"accessorTangents"},{"bufferView":1,"byteOffset":703380,"componentType":5126,"count":4773,"type":"VEC3","name":"accessorNormals"},{"bufferView":3,"byteOffset":215368,"componentType":5126,"count":4773,"type":"VEC2","name":"accessorUVs"},{"bufferView":0,"byteOffset":200404,"componentType":5123,"count":12420,"type":"SCALAR","name":"accessorIndices"},{"bufferView":1,"byteOffset":760656,"componentType":5126,"count":4406,"max":[0.0433883928,0.0234345049,0.004985],"min":[-0.0433883928,-0.003330755,-0.005015],"type":"VEC3","name":"accessorPositions"},{"bufferView":2,"byteOffset":507104,"componentType":5126,"count":4406,"type":"VEC4","name":"accessorTangents"},{"bufferView":1,"byteOffset":813528,"componentType":5126,"count":4406,"type":"VEC3","name":"accessorNormals"},{"bufferView":3,"byteOffset":253552,"componentType":5126,"count":4406,"type":"VEC2","name":"accessorUVs"},{"bufferView":0,"byteOffset":225244,"componentType":5123,"count":14592,"type":"SCALAR","name":"accessorIndices"},{"bufferView":1,"byteOffset":866400,"componentType":5126,"count":5399,"max":[0.0211691037,-0.00582363131,0.00500499969],"min":[-0.02115703,-0.0485185646,-0.004995],"type":"VEC3","name":"accessorPositions"},{"bufferView":2,"byteOffset":577600,"componentType":5126,"count":5399,"type":"VEC4","name":"accessorTangents"},{"bufferView":1,"byteOffset":931188,"componentType":5126,"count":5399,"type":"VEC3","name":"accessorNormals"},{"bufferView":3,"byteOffset":288800,"componentType":5126,"count":5399,"type":"VEC2","name":"accessorUVs"},{"bufferView":4,"componentType":5126,"count":94,"max":[15.96],"min":[0.0],"type":"SCALAR","name":"accessorAnimationInput"},{"bufferView":5,"componentType":5126,"count":94,"type":"VEC3","name":"accessorAnimationPositions"},{"bufferView":4,"byteOffset":376,"componentType":5126,"count":19,"max":[15.96],"min":[0.0],"type":"SCALAR","name":"accessorAnimationInput"},{"bufferView":5,"byteOffset":1128,"componentType":5126,"count":19,"type":"VEC3","name":"accessorAnimationScales"},{"bufferView":4,"byteOffset":452,"componentType":5126,"count":2,"max":[15.96],"min":[0.0],"type":"SCALAR","name":"accessorAnimationInput"},{"bufferView":5,"byteOffset":1356,"componentType":5126,"count":2,"type":"VEC3","name":"accessorAnimationPositions"},{"bufferView":4,"byteOffset":460,"componentType":5126,"count":31,"max":[15.96],"min":[0.0],"type":"SCALAR","name":"accessorAnimationInput"},{"bufferView":6,"componentType":5126,"count":31,"type":"VEC4","name":"accessorAnimationRotations"},{"bufferView":4,"byteOffset":584,"componentType":5126,"count":77,"max":[15.96],"min":[0.0],"type":"SCALAR","name":"accessorAnimationInput"},{"bufferView":5,"byteOffset":1380,"componentType":5126,"count":77,"type":"VEC3","name":"accessorAnimationPositions"},{"bufferView":4,"byteOffset":892,"componentType":5126,"count":15,"max":[15.96],"min":[0.0],"type":"SCALAR","name":"accessorAnimationInput"},{"bufferView":6,"byteOffset":496,"componentType":5126,"count":15,"type":"VEC4","name":"accessorAnimationRotations"},{"bufferView":4,"byteOffset":952,"componentType":5126,"count":21,"max":[15.96],"min":[0.0],"type":"SCALAR","name":"accessorAnimationInput"},{"bufferView":6,"byteOffset":736,"componentType":5126,"count":21,"type":"VEC4","name":"accessorAnimationRotations"},{"bufferView":4,"byteOffset":1036,"componentType":5126,"count":77,"max":[15.96],"min":[0.0],"type":"SCALAR","name":"accessorAnimationInput"},{"bufferView":5,"byteOffset":2304,"componentType":5126,"count":77,"type":"VEC3","name":"accessorAnimationPositions"},{"bufferView":4,"byteOffset":1344,"componentType":5126,"count":29,"max":[15.96],"min":[0.0],"type":"SCALAR","name":"accessorAnimationInput"},{"bufferView":6,"byteOffset":1072,"componentType":5126,"count":29,"type":"VEC4","name":"accessorAnimationRotations"},{"bufferView":4,"byteOffset":1460,"componentType":5126,"count":17,"max":[15.96],"min":[0.0],"type":"SCALAR","name":"accessorAnimationInput"},{"bufferView":5,"byteOffset":3228,"componentType":5126,"count":17,"type":"VEC3","name":"accessorAnimationScales"},{"bufferView":4,"byteOffset":1528,"componentType":5126,"count":2,"max":[15.96],"min":[0.0],"type":"SCALAR","name":"accessorAnimationInput"},{"bufferView":5,"byteOffset":3432,"componentType":5126,"count":2,"type":"VEC3","name":"accessorAnimationPositions"},{"bufferView":4,"byteOffset":1536,"componentType":5126,"count":57,"max":[15.96],"min":[0.0],"type":"SCALAR","name":"accessorAnimationInput"},{"bufferView":6,"byteOffset":1536,"componentType":5126,"count":57,"type":"VEC4","name":"accessorAnimationRotations"},{"bufferView":4,"byteOffset":1764,"componentType":5126,"count":2,"max":[15.96],"min":[0.0],"type":"SCALAR","name":"accessorAnimationInput"},{"bufferView":5,"byteOffset":3456,"componentType":5126,"count":2,"type":"VEC3","name":"accessorAnimationScales"},{"bufferView":4,"byteOffset":1772,"componentType":5126,"count":17,"max":[15.96],"min":[0.0],"type":"SCALAR","name":"accessorAnimationInput"},{"bufferView":5,"byteOffset":3480,"componentType":5126,"count":17,"type":"VEC3","name":"accessorAnimationPositions"},{"bufferView":4,"byteOffset":1840,"componentType":5126,"count":15,"max":[15.96],"min":[0.0],"type":"SCALAR","name":"accessorAnimationInput"},{"bufferView":6,"byteOffset":2448,"componentType":5126,"count":15,"type":"VEC4","name":"accessorAnimationRotations"},{"bufferView":4,"byteOffset":1900,"componentType":5126,"count":14,"max":[15.96],"min":[0.0],"type":"SCALAR","name":"accessorAnimationInput"},{"bufferView":5,"byteOffset":3684,"componentType":5126,"count":14,"type":"VEC3","name":"accessorAnimationScales"},{"bufferView":4,"byteOffset":1956,"componentType":5126,"count":2,"max":[15.96],"min":[0.0],"type":"SCALAR","name":"accessorAnimationInput"},{"bufferView":5,"byteOffset":3852,"componentType":5126,"count":2,"type":"VEC3","name":"accessorAnimationPositions"},{"bufferView":4,"byteOffset":1964,"componentType":5126,"count":64,"max":[15.96],"min":[0.0],"type":"SCALAR","name":"accessorAnimationInput"},{"bufferView":6,"byteOffset":2688,"componentType":5126,"count":64,"type":"VEC4","name":"accessorAnimationRotations"},{"bufferView":4,"byteOffset":2220,"componentType":5126,"count":35,"max":[15.96],"min":[0.0],"type":"SCALAR","name":"accessorAnimationInput"},{"bufferView":5,"byteOffset":3876,"componentType":5126,"count":35,"type":"VEC3","name":"accessorAnimationPositions"},{"bufferView":4,"byteOffset":2360,"componentType":5126,"count":68,"max":[15.96],"min":[0.0],"type":"SCALAR","name":"accessorAnimationInput"},{"bufferView":6,"byteOffset":3712,"componentType":5126,"count":68,"type":"VEC4","name":"accessorAnimationRotations"},{"bufferView":4,"byteOffset":2632,"componentType":5126,"count":2,"max":[15.96],"min":[0.0],"type":"SCALAR","name":"accessorAnimationInput"},{"bufferView":5,"byteOffset":4296,"componentType":5126,"count":2,"type":"VEC3","name":"accessorAnimationScales"},{"bufferView":4,"byteOffset":2640,"componentType":5126,"count":34,"max":[15.96],"min":[0.0],"type":"SCALAR","name":"accessorAnimationInput"},{"bufferView":5,"byteOffset":4320,"componentType":5126,"count":34,"type":"VEC3","name":"accessorAnimationPositions"},{"bufferView":4,"byteOffset":2776,"componentType":5126,"count":66,"max":[15.96],"min":[0.0],"type":"SCALAR","name":"accessorAnimationInput"},{"bufferView":6,"byteOffset":4800,"componentType":5126,"count":66,"type":"VEC4","name":"accessorAnimationRotations"},{"bufferView":4,"byteOffset":3040,"componentType":5126,"count":2,"max":[15.96],"min":[0.0],"type":"SCALAR","name":"accessorAnimationInput"},{"bufferView":5,"byteOffset":4728,"componentType":5126,"count":2,"type":"VEC3","name":"accessorAnimationScales"},{"bufferView":4,"byteOffset":3048,"componentType":5126,"count":33,"max":[15.96],"min":[0.0],"type":"SCALAR","name":"accessorAnimationInput"},{"bufferView":5,"byteOffset":4752,"componentType":5126,"count":33,"type":"VEC3","name":"accessorAnimationPositions"},{"bufferView":4,"byteOffset":3180,"componentType":5126,"count":78,"max":[15.96],"min":[0.0],"type":"SCALAR","name":"accessorAnimationInput"},{"bufferView":6,"byteOffset":5856,"componentType":5126,"count":78,"type":"VEC4","name":"accessorAnimationRotations"},{"bufferView":4,"byteOffset":3492,"componentType":5126,"count":2,"max":[15.96],"min":[0.0],"type":"SCALAR","name":"accessorAnimationInput"},{"bufferView":5,"byteOffset":5148,"componentType":5126,"count":2,"type":"VEC3","name":"accessorAnimationScales"}],"bufferViews":[{"buffer":0,"byteLength":254428,"name":"bufferViewScalar"},{"buffer":0,"byteOffset":254428,"byteLength":995976,"byteStride":12,"name":"bufferViewFloatVec3"},{"buffer":0,"byteOffset":1250404,"byteLength":663984,"byteStride":16,"name":"bufferViewFloatVec4"},{"buffer":0,"byteOffset":1914388,"byteLength":331992,"byteStride":8,"name":"bufferViewFloatVec2"},{"buffer":0,"byteOffset":2246380,"byteLength":3500,"name":"bufferViewAnimationFloatScalar"},{"buffer":0,"byteOffset":2249880,"byteLength":5172,"name":"bufferViewAnimationFloatVec3"},{"buffer":0,"byteOffset":2255052,"byteLength":7104,"name":"bufferViewAnimationFloatVec4"}],"buffers":[{"uri":"Export_animtion_Gltf_1122_v2.bin","byteLength":2262156}],"materials":[{"pbrMetallicRoughness":{"baseColorTexture":{"index":0},"metallicFactor":0.0,"roughnessFactor":0.17577447},"name":"phongE1"},{"pbrMetallicRoughness":{"baseColorTexture":{"index":1},"metallicFactor":0.0,"roughnessFactor":0.17577447},"name":"Ten_FIX_expoort:phongE1"},{"pbrMetallicRoughness":{"baseColorTexture":{"index":2},"metallicFactor":0.0,"roughnessFactor":0.17577447},"name":"phongE3"},{"pbrMetallicRoughness":{"baseColorTexture":{"index":3},"metallicFactor":0.0,"roughnessFactor":0.17577447},"name":"Tagline_FFbb_TTb_fix:hand_heart_export:phongE4"},{"pbrMetallicRoughness":{"baseColorTexture":{"index":4},"metallicFactor":0.0,"roughnessFactor":0.17577447},"name":"Tagline_FFbb_TTb_fix:phongE3"},{"pbrMetallicRoughness":{"baseColorTexture":{"index":5},"metallicFactor":0.0,"roughnessFactor":0.17577447},"name":"Tagline_FFbb_TTb_fix:batch_export:phongE5"},{"pbrMetallicRoughness":{"baseColorTexture":{"index":6},"metallicFactor":0.0,"roughnessFactor":0.17577447},"name":"Date_model_export_TXT:phongE2"},{"pbrMetallicRoughness":{"baseColorTexture":{"index":7},"metallicFactor":0.0,"roughnessFactor":0.17577447},"name":"Law_week_phongE1"}],"textures":[{"sampler":0,"source":0,"name":"Teen_talk_texture.png"},{"sampler":0,"source":1,"name":"ten_texture.jpg"},{"sampler":0,"source":2,"name":"Tag_line_texture.jpg"},{"sampler":0,"source":3,"name":"hand_heart_texture.jpg"},{"sampler":0,"source":4,"name":"tagline_green_txt.jpg"},{"sampler":0,"source":5,"name":"Batch_texture.jpg"},{"sampler":0,"source":6,"name":"Date_bg_cloudb.png"},{"sampler":0,"source":7,"name":"law week_with law soc_brian_texture.png"}],"images":[{"uri":"Teen_talk_texture.png"},{"uri":"ten_texture.jpg"},{"uri":"Tag_line_texture.jpg"},{"uri":"hand_heart_texture.jpg"},{"uri":"tagline_green_txt.jpg"},{"uri":"Batch_texture.jpg"},{"uri":"Date_bg_cloudb.png"},{"uri":"law week_with law soc_brian_texture.png"}],"samplers":[{"magFilter":9729,"minFilter":9987}],"animations":[{"channels":[{"sampler":0,"target":{"node":0,"path":"translation"}},{"sampler":1,"target":{"node":0,"path":"scale"}},{"sampler":2,"target":{"node":1,"path":"translation"}},{"sampler":3,"target":{"node":1,"path":"rotation"}},{"sampler":4,"target":{"node":5,"path":"translation"}},{"sampler":5,"target":{"node":5,"path":"rotation"}},{"sampler":6,"target":{"node":6,"path":"rotation"}},{"sampler":7,"target":{"node":10,"path":"translation"}},{"sampler":8,"target":{"node":10,"path":"rotation"}},{"sampler":9,"target":{"node":10,"path":"scale"}},{"sampler":10,"target":{"node":11,"path":"translation"}},{"sampler":11,"target":{"node":11,"path":"rotation"}},{"sampler":12,"target":{"node":11,"path":"scale"}},{"sampler":13,"target":{"node":18,"path":"translation"}},{"sampler":14,"target":{"node":18,"path":"rotation"}},{"sampler":15,"target":{"node":18,"path":"scale"}},{"sampler":16,"target":{"node":19,"path":"translation"}},{"sampler":17,"target":{"node":19,"path":"rotation"}},{"sampler":18,"target":{"node":28,"path":"translation"}},{"sampler":19,"target":{"node":28,"path":"rotation"}},{"sampler":20,"target":{"node":28,"path":"scale"}},{"sampler":21,"target":{"node":29,"path":"translation"}},{"sampler":22,"target":{"node":29,"path":"rotation"}},{"sampler":23,"target":{"node":29,"path":"scale"}},{"sampler":24,"target":{"node":30,"path":"translation"}},{"sampler":25,"target":{"node":30,"path":"rotation"}},{"sampler":26,"target":{"node":30,"path":"scale"}}],"samplers":[{"input":60,"output":61},{"input":62,"output":63},{"input":64,"output":65},{"input":66,"output":67},{"input":68,"output":69},{"input":70,"output":71},{"input":72,"output":73},{"input":74,"output":75},{"input":76,"output":77},{"input":78,"output":79},{"input":80,"output":81},{"input":82,"output":83},{"input":84,"output":85},{"input":86,"output":87},{"input":88,"output":89},{"input":90,"output":91},{"input":92,"output":93},{"input":94,"output":95},{"input":96,"output":97},{"input":98,"output":99},{"input":100,"output":101},{"input":102,"output":103},{"input":104,"output":105},{"input":106,"output":107},{"input":108,"output":109},{"input":110,"output":111},{"input":112,"output":113}],"name":"All Animations"}]}